<svg id="Layer_1" data-name="Layer 1" xmlns="http://www.w3.org/2000/svg" xmlns:xlink="http://www.w3.org/1999/xlink" viewBox="0 0 152.23 40.69"><defs><style>.cls-1{fill:none;}.cls-2{clip-path:url(#clip-path);}.cls-3{fill:#51c7e4;}.cls-4{fill:#0067b1;}</style><clipPath id="clip-path" transform="translate(-29.05 -4.5)"><rect class="cls-1" x="29.05" y="4.5" width="152.23" height="40.69"/></clipPath></defs><g id="cc_r_h_pos_clr_2cs"><g class="cls-2"><g class="cls-2"><path class="cls-3" d="M176.43,19.9,161.1,5.36a2.77,2.77,0,0,0-3.91-.1L143.75,18.05,130.33,5.36a2.78,2.78,0,0,0-3.92-.1L112.89,18.09,99.47,5.36a2.77,2.77,0,0,0-3.91-.1L80.13,19.9a2.77,2.77,0,1,0,3.81,4L97.46,11.08,111,23.91a2.77,2.77,0,0,0,3.91-.1l13.42-12.73,13.52,12.83a2.77,2.77,0,0,0,3.91-.1l13.34-12.73,13.53,12.83a2.77,2.77,0,0,0,3.81-4" transform="translate(-29.05 -4.5)"/><path class="cls-4" d="M36.32,30.52c2.92,0,6.13,1.59,6.68,5.39H39.43a2.92,2.92,0,0,0-3.11-2c-2.15,0-3.56,1.63-3.56,4a3.7,3.7,0,0,0,3.56,3.94,3,3,0,0,0,3.15-2.26H43c-.54,4.05-3.69,5.65-6.72,5.65a7,7,0,0,1-7.27-7.31,7,7,0,0,1,7.27-7.36M54.87,40A4.93,4.93,0,0,0,49.63,35,4.9,4.9,0,0,0,44.45,40a5.21,5.21,0,0,0,10.42,0m-7,0A1.8,1.8,0,0,1,49.69,38,1.82,1.82,0,0,1,51.44,40a1.9,1.9,0,0,1-1.75,2.13c-.89,0-1.79-.69-1.79-2.13m18.72,0A5.21,5.21,0,0,0,56.2,40a5.21,5.21,0,0,0,10.42,0m-7,0c0-1.44.89-2.07,1.78-2.05A1.82,1.82,0,0,1,63.19,40a1.9,1.9,0,0,1-1.75,2.13c-.89,0-1.78-.69-1.78-2.13m12.15-1.52V30.08H68.37V44.91h3.44v-3.7h.34a1.76,1.76,0,0,0,.63-.12l2,3.82h3.5v-.35L75.69,40c1.8-1.16,2.15-2.88,2.09-4.87H74.51c0,1.7-.25,3.39-2.3,3.39Zm14.73-8c2.93,0,6.14,1.59,6.68,5.39H89.65a2.92,2.92,0,0,0-3.11-2c-2.15,0-3.56,1.63-3.56,4a3.71,3.71,0,0,0,3.56,3.94,3,3,0,0,0,3.15-2.26h3.57c-.54,4.05-3.69,5.65-6.72,5.65a7,7,0,0,1-7.27-7.31,7,7,0,0,1,7.27-7.36m18.69,14.39V39.3c0-2.52-1-4.41-3.82-4.41a3,3,0,0,0-2.7,1.49v-6.3H95.23V44.91h3.48V39.36a1.66,1.66,0,0,1,1.66-1.75c.74,0,1.39.57,1.37,1.69v5.61Zm2.19-12.54a2,2,0,1,0,2-1.95,1.91,1.91,0,0,0-2,1.95m3.72,2.89h-3.46v9.65h3.46Zm2.46-5.18V40.82c0,3.78,2.17,4.54,5.22,4l-.1-2.58c-1,.16-1.71-.11-1.71-1.43V30.08Zm13.82,13.53c.06,1.91,2.28,1.68,3.6,1.36V43.06c-.86,0-.81-.35-.81-1.12V30.08h-3.46v5.24a4.85,4.85,0,0,0-1.89-.37,4.93,4.93,0,0,0-4.77,5.14c0,2.91,1.7,5.16,4.69,5.1a2.87,2.87,0,0,0,2.64-1.58m-.59-3.15a1.56,1.56,0,0,1-1.48,1.72c-1.22,0-1.71-.89-1.71-2.09A1.89,1.89,0,0,1,125.51,38a3.35,3.35,0,0,1,1.32.3Zm9.61-4c-.16-1.89-2.8-1.67-4.16-1.34v1.89c.83,0,.87.36.87,1.11v6.75h3.39V40.07a2.14,2.14,0,0,1,2.16-2.27,2.66,2.66,0,0,1,1.68.49l.69-2.81a3.23,3.23,0,0,0-2-.59,2.7,2.7,0,0,0-2.64,1.61m10.44-1.59A4.93,4.93,0,0,0,141.67,40c0,3.33,2.4,5.16,5.67,5.16a9.86,9.86,0,0,0,3.92-.89l-.38-2.5a9.31,9.31,0,0,1-3.19.65c-1.26,0-2.38-.35-2.56-1.57h6.07c.88-3.45-.59-5.91-4.32-6m-1.73,4a1.77,1.77,0,0,1,1.7-1.42c.9,0,1.57.51,1.47,1.42Zm18.54,6V39.3c.06-2.46-1-4.41-3.82-4.41a3.14,3.14,0,0,0-2.82,1.57c-.07-1.91-2.83-1.69-4.19-1.36V37c.87,0,.83.37.83,1.12v6.81h3.46V39.36a1.63,1.63,0,0,1,1.64-1.75,1.49,1.49,0,0,1,1.43,1.69v5.61Zm4.45-3.07c.07,2.82,2.42,3.35,4.66,3.35s4.43-1,4.49-3.25c.06-2.6-2.26-2.9-4.43-3.13-.47-.06-1.2-.08-1.14-.69,0-.41.49-.63,1-.65s1.15.24,1.22.73h3c.1-2.15-2.09-3.27-4.32-3.27s-4.37,1-4.37,3.27,2.48,2.77,4.41,3c.54.06,1.07.14,1.07.75s-.57.77-1.13.77-1.14-.24-1.14-.87Zm.84-9.92H165.5a.32.32,0,0,0-.28.29v3.47a.25.25,0,0,0,.43.18l3.51-3.5a.26.26,0,0,0-.18-.44M97.46,11.08,86,21.91h22.84Zm30.86,0L116.9,21.91h22.83Zm30.77,0L147.74,21.91h22.77ZM82,24.67a2.77,2.77,0,1,0-2.76-2.77A2.77,2.77,0,0,0,82,24.67M97.46,10a2.77,2.77,0,1,0-2.77-2.76A2.76,2.76,0,0,0,97.46,10m15.43,14.64a2.77,2.77,0,1,0-2.77-2.77,2.77,2.77,0,0,0,2.77,2.77m33.62-2.77a2.77,2.77,0,1,0-2.76,2.77,2.76,2.76,0,0,0,2.76-2.77M128.32,10a2.77,2.77,0,1,0-2.77-2.76A2.75,2.75,0,0,0,128.32,10m49,11.87a2.77,2.77,0,1,0-2.77,2.77,2.76,2.76,0,0,0,2.77-2.77M159.09,10a2.77,2.77,0,1,0-2.76-2.76A2.76,2.76,0,0,0,159.09,10m22.18,33.73a1.54,1.54,0,0,1-.12.63,1.32,1.32,0,0,1-.32.44,1.29,1.29,0,0,1-.45.27,1.55,1.55,0,0,1-1,0,1.43,1.43,0,0,1-.45-.26,1.25,1.25,0,0,1-.33-.45,1.54,1.54,0,0,1-.12-.63,1.52,1.52,0,0,1,.12-.62,1.22,1.22,0,0,1,.33-.44,1.29,1.29,0,0,1,.45-.27,1.55,1.55,0,0,1,1,0,1.29,1.29,0,0,1,.45.27,1.32,1.32,0,0,1,.32.44,1.52,1.52,0,0,1,.12.62m-2.41,0a1.11,1.11,0,0,0,.15.6,1,1,0,0,0,.37.35,1,1,0,0,0,1,0,1,1,0,0,0,.37-.36,1.05,1.05,0,0,0,.15-.59,1.1,1.1,0,0,0-.15-.59,1,1,0,0,0-.37-.35,1,1,0,0,0-1,0,1,1,0,0,0-.37.35,1.1,1.1,0,0,0-.15.59m1.63.61v.06h-.35l-.26-.44h-.17v.44h-.34V43.09H180a.56.56,0,0,1,.36.12.43.43,0,0,1,.14.34.48.48,0,0,1-.06.24.29.29,0,0,1-.19.15Zm-.78-.65h.22a.24.24,0,0,0,.14,0,.17.17,0,0,0,.05-.12.18.18,0,0,0-.05-.12.2.2,0,0,0-.14,0h-.22Z" transform="translate(-29.05 -4.5)"/></g></g></g></svg>