<svg height="260.33332" viewBox="0 0 737.9 500" width="384.122939" xmlns="http://www.w3.org/2000/svg"><path d="m339.9 276.8c5.1 1.8 7.8 2.8 8.5 2.8a4.3 4.3 0 0 0 3.4-1.8 7.88 7.88 0 0 0 1.7-4h3.4v28.3h-2.9a73.68 73.68 0 0 0 -8.7-14.5c-5.3-6.5-11.6-9.8-18.4-9.8-8 0-13.6 3.5-16.7 10.5-3.4 7-5.1 16.3-5.1 28.1 0 8.8 1 15.8 2.9 21.3 3.6 10.5 10.4 15.8 20.1 15.8a29 29 0 0 0 16.7-5.3 64.35 64.35 0 0 0 10.4-9.5l3.4 3a59.68 59.68 0 0 1 -11.9 11.3 35.5 35.5 0 0 1 -20.6 6.3c-11.4 0-21.1-3.5-28.8-10.5-8.7-7.8-13.1-18.3-13.1-31.6 0-13 4.1-23.8 12.6-31.8a39.57 39.57 0 0 1 28.4-11.5 36.69 36.69 0 0 1 14.7 2.9z"/><path d="m360.1 354a8.42 8.42 0 0 0 4.6-1.8c1-.8 1.5-2.8 1.5-5.5v-61.4c0-2.5-.2-4.3-1.2-5-.7-1-2.4-1.8-4.8-2v-3h22.5v34.1a24.62 24.62 0 0 1 7.5-7 15.18 15.18 0 0 1 8.7-2.5 16.36 16.36 0 0 1 11.1 4c2.9 2.8 4.4 7.3 4.4 13.8v29.1c0 2.8.5 4.5 1.5 5.3 1 1 2.4 1.5 4.6 2v3h-27.6v-3a7.55 7.55 0 0 0 4.4-1.8c.7-.8 1.2-2.3 1.2-5v-29.3c0-2.8-.2-4.8-1-6a5 5 0 0 0 -5.3-3.8c-1.9 0-4.1 1-6.3 2.8-1.9 2-3.1 3.3-3.1 4v32.3c0 2.8.5 4.3 1.2 5a7.13 7.13 0 0 0 4.1 1.8v3h-28z"/><path d="m418.7 354a8 8 0 0 0 4.1-1.5c1-1 1.7-3 1.7-5.8v-35.3c0-2.5-.5-4.3-1.2-5-.7-1-2.4-1.8-4.6-2v-3h22.1v45.8c0 2.8.5 4.3 1.2 5a7.25 7.25 0 0 0 4.4 1.8v3h-27.6v-3zm7.5-77.4a8.09 8.09 0 0 1 6.6-2.8 7.9 7.9 0 0 1 6.3 2.8 9.23 9.23 0 0 1 2.6 6.5 10.87 10.87 0 0 1 -2.6 6.8 8.57 8.57 0 0 1 -6.3 2.8 8.75 8.75 0 0 1 -6.6-2.8 10.44 10.44 0 0 1 -2.7-6.8 9.15 9.15 0 0 1 2.7-6.5z"/><path d="m444.6 354c2.2-.5 3.6-1 4.4-2 1-.8 1.2-2.5 1.2-5.3v-61.4c0-2.5-.3-4.3-1-5-1-1-2.4-1.5-4.6-2v-3h22.1v71.4c0 2.8.5 4.5 1.5 5.3.7.8 2.2 1.5 4.4 2v3h-27.9v-3z"/><path d="m478.3 308.1c4.6-5.5 9.7-8.3 16-8.3a14.16 14.16 0 0 1 8.2 2.5c1.5.8 3.2 2.5 5.6 5v-22c0-3-.7-5-1.7-5.8-1.2-.8-3.6-1.3-7-1.3v-3h25.2v69.6c0 2.3.2 4 1.2 5s2.7 1.5 5.3 1.8v2.8q-9.75 1.2-12.6 1.5c-1.9.5-5.3 1.3-10.2 2.5v-7.8a38.62 38.62 0 0 1 -6 5.3 16.57 16.57 0 0 1 -9.2 2.5c-5.8 0-10.7-2.5-15.1-7.3-4.1-5-6.3-11.8-6.3-20.5q0-14.25 6.6-22.5zm26.6 40.1c2.2-2.3 3.2-3.8 3.2-4.8v-29.3c0-1-1-2.5-2.7-4.5a8.88 8.88 0 0 0 -6.8-2.8c-4.1 0-7 3-8.5 8.8a66.36 66.36 0 0 0 -1.2 13.5 65.41 65.41 0 0 0 1.2 14c1.2 5.8 4.1 8.5 8 8.5a7.67 7.67 0 0 0 6.8-3.4z"/><path d="m529.6 354a10.26 10.26 0 0 0 4.6-1.5c.7-.8 1.2-2.5 1.5-4.8v-36.3a9.59 9.59 0 0 0 -1.2-5.3c-.7-1-2.4-1.5-4.8-1.8v-3h21.8v9.5a49.43 49.43 0 0 1 7.5-8 13 13 0 0 1 8.5-3 9.48 9.48 0 0 1 6.5 2.5 8.21 8.21 0 0 1 2.9 6.8 8.08 8.08 0 0 1 -2.2 6 6.74 6.74 0 0 1 -5.3 2.3 8.06 8.06 0 0 1 -6.3-3.5c-1.9-2.5-3.2-3.8-3.9-3.8-1.5 0-3.2 1-4.6 3-1.7 2-2.4 4.8-2.4 8.5v23c0 4 .5 6.5 1.7 7.5 1 1 3.4 1.5 6.8 1.8v3h-31v-2.9z"/><path d="m580.5 307.6a22.64 22.64 0 0 1 17.4-7.8 18.26 18.26 0 0 1 10.7 3.3 21.19 21.19 0 0 1 8 8.5 36.38 36.38 0 0 1 2.6 10.8 43.3 43.3 0 0 1 .5 5h-29.8a42.07 42.07 0 0 0 2.4 12.5c2.2 6.5 6.3 9.8 11.9 9.8a13.85 13.85 0 0 0 7.8-2.5 34.76 34.76 0 0 0 5.6-5.5l2.6 1.8c-3.6 6.3-7.8 10.5-12.6 12.8a23.07 23.07 0 0 1 -10.4 2.3c-5.8 0-11.1-2.3-16.2-7-5.1-4.5-7.5-12-7.5-22.3 0-9.4 2.4-16.7 7-21.7zm25 15.1c0-7-.7-11.8-1.7-14.8a5.52 5.52 0 0 0 -5.8-4c-3.2 0-5.1 1.5-6.3 4.8s-1.7 8-1.9 14z"/><path d="m618.3 354a8.81 8.81 0 0 0 4.8-1.8c1-.8 1.5-2.8 1.5-5.5v-35.3a9.59 9.59 0 0 0 -1.2-5.3 10.32 10.32 0 0 0 -5.1-1.8v-3h22.1v8.8a22.25 22.25 0 0 1 7-7.3 16.62 16.62 0 0 1 9.7-3c4.8 0 8.7 1.3 11.6 4 2.7 2.8 4.1 7.5 4.1 14v29.3c0 2.8.5 4.5 1.5 5.3.7.8 2.2 1.3 4.4 1.5v3h-27.4v-3a7.13 7.13 0 0 0 4.1-1.8c1-.8 1.2-2.3 1.2-5v-29.3a17.33 17.33 0 0 0 -.7-6c-1-2.5-2.7-3.8-5.3-3.8a8 8 0 0 0 -5.6 2.3 23.89 23.89 0 0 0 -4.1 4.5v32.3c0 2.8.5 4.3 1.2 5a7.25 7.25 0 0 0 4.4 1.8v3h-28.1v-2.9z"/><path d="m698.3 338.7h3.4c1 5.8 3.1 9.8 6.3 12.3a15.91 15.91 0 0 0 9.4 3.5c3.2 0 5.3-.8 6.6-2.3a6.68 6.68 0 0 0 2.2-5.5 7.71 7.71 0 0 0 -2.2-5.5 25.39 25.39 0 0 0 -4.1-2.5l-8.7-4.5c-4.4-2.3-7.8-4.8-9.7-7.5a16.19 16.19 0 0 1 -2.9-9.5 17.74 17.74 0 0 1 4.6-12.3c3.1-3.3 7.8-5 13.3-5a30.9 30.9 0 0 1 8 1.3 27.7 27.7 0 0 0 5.1 1.3 5.49 5.49 0 0 0 2.2-.5c.2-.5.7-1 1-1.8h2.4v17.2h-2.9a21.11 21.11 0 0 0 -5.6-9.8 11.67 11.67 0 0 0 -8.7-3.8c-2.6 0-4.6.8-5.8 2.3a8.14 8.14 0 0 0 -1.9 4.8 6.2 6.2 0 0 0 1.7 4.3q1.5 2.25 6.3 4.5l6.3 3.3c4.1 2 7 3.8 8.7 5.8a15.53 15.53 0 0 1 4.6 11.5 19.16 19.16 0 0 1 -4.6 12.5c-3.2 4-8 5.8-14 5.8a15.39 15.39 0 0 1 -4.8-.5 30.14 30.14 0 0 1 -5.8-1.8l-1.9-.5a2.31 2.31 0 0 0 -1.5-.5c-.3-.3-.3-.3-.7-.3a2.23 2.23 0 0 0 -1.7 1 14.57 14.57 0 0 0 -1.5 2.5h-2.9v-19.8z"/><path d="m678.4 313.1a53.44 53.44 0 0 0 8.2-6.8c3.1-3.3 4.6-6.3 4.6-9.3a2.64 2.64 0 0 0 -.5-2 2.29 2.29 0 0 0 -1.7-.8 12.09 12.09 0 0 1 -2.7.3 8.67 8.67 0 0 1 -6.3-2.5 10.23 10.23 0 0 1 -2.4-6.8 11.28 11.28 0 0 1 2.7-7.5 9.56 9.56 0 0 1 7.3-2.8 10.34 10.34 0 0 1 8.2 3.8c2.2 2.5 3.4 6 3.4 10.3a24.61 24.61 0 0 1 -7 17 47.24 47.24 0 0 1 -12.3 9.5z"/><path d="m66.9 308.4a22.64 22.64 0 0 1 17.4-7.8 18.26 18.26 0 0 1 10.7 3.3 20.54 20.54 0 0 1 8 8.5 39.51 39.51 0 0 1 2.7 10.8c.2 2.3.5 3.8.5 5h-29.9a39.13 39.13 0 0 0 2.4 12.5c2.2 6.5 6.1 9.8 11.9 9.8a13.62 13.62 0 0 0 7.8-2.5 34.76 34.76 0 0 0 5.6-5.5l2.7 1.8c-3.6 6.3-7.8 10.5-12.6 12.8a24.08 24.08 0 0 1 -10.7 2.3c-5.6 0-10.9-2.3-16-7-5.1-4.5-7.5-12-7.5-22.3 0-9.5 2.4-16.7 7-21.7zm24.9 15c0-7-.7-11.8-1.7-14.8a5.52 5.52 0 0 0 -5.8-4c-3.1 0-5.1 1.5-6.3 4.8s-1.7 8-1.9 14z"/><path d="m105.7 354.7a16.23 16.23 0 0 0 5.1-1.8c1.5-1 3.4-3.3 6.3-7 1.2-1.5 2.9-3.5 4.8-6.3 1.9-2.5 3.4-4.8 4.8-6.5l-15-23.5a18.74 18.74 0 0 0 -2.9-3.5 8.08 8.08 0 0 0 -3.4-1v-3h29.3v3c-2.7.3-4.4.5-4.8.8a1.58 1.58 0 0 0 -.7 1.5c0 .8 1 2.8 3.2 6 1.9 3.3 3.6 5.8 5.1 8 3.9-5.3 6.3-8.5 7.3-10s1.5-2.5 1.5-3.5a2.07 2.07 0 0 0 -1.5-2.3 14.12 14.12 0 0 0 -4.4-.5v-3h19.4v3a13.09 13.09 0 0 0 -3.6 1 12.43 12.43 0 0 0 -4.4 3.5l-12.1 15.3 17.4 27.3a3.54 3.54 0 0 0 1.5 1.5 4.1 4.1 0 0 0 2.2 1v3h-28.3v-3a17.7 17.7 0 0 0 3.9-.5 1.94 1.94 0 0 0 1.5-2 9.54 9.54 0 0 0 -1.2-3.3c-.5-.8-1.2-2.3-2.2-3.8-.7-1-1.5-2.3-2.4-3.8-1.2-1.8-2.2-3.3-2.9-4.5-2.7 3.3-4.4 5.8-5.8 7.5-2.4 3.8-3.6 6-3.6 7.3a2.47 2.47 0 0 0 1.5 2.5 15.57 15.57 0 0 0 4.4.5v3h-20z"/><path d="m168.2 333.4c5.1-3.3 13.1-6.5 23.7-9.8v-8.8c0-3.5-.7-6-2.2-7.8s-3.9-2.5-7.8-2.5c-2.2 0-3.9.3-5.1 1.3-1.5.8-2.2 1.8-2.2 3 0 .3.2.8.2 1a2.85 2.85 0 0 0 .7 1l.7 1a5.1 5.1 0 0 1 1.2 2 5.57 5.57 0 0 1 .5 2.8 6.53 6.53 0 0 1 -2.2 5.3 7.26 7.26 0 0 1 -5.1 1.8 9.91 9.91 0 0 1 -5.8-2 8.08 8.08 0 0 1 -2.2-6 12.24 12.24 0 0 1 6.3-11 29.69 29.69 0 0 1 15.5-4c6.5 0 12.1 1.3 16.5 4 4.6 2.8 6.8 7.5 6.8 14.8v29.1a4.62 4.62 0 0 0 .5 2.3 1.7 1.7 0 0 0 1.5 1 6.81 6.81 0 0 0 1.2-.3 10.06 10.06 0 0 0 1.7-1.5l1.9 2.5c-2.4 2.8-4.8 4.8-7.8 5.8a11.93 11.93 0 0 1 -5.3 1c-3.6 0-6.1-1-7.8-3a17 17 0 0 1 -1.9-5.3 25.24 25.24 0 0 1 -10.9 7 18.48 18.48 0 0 1 -7.3 1.3 14.56 14.56 0 0 1 -9-3c-2.9-2.3-4.1-5.5-4.1-9.8.2-5.7 2.7-9.9 7.8-13.2zm20.3 15.6a25.6 25.6 0 0 0 3.2-3.3v-17.8a24.57 24.57 0 0 0 -8.2 3.8c-3.9 3-5.8 6.5-5.8 11 0 2.8.5 4.8 1.7 6a4.61 4.61 0 0 0 3.9 2 8.72 8.72 0 0 0 5.2-1.7z"/><path d="m214 339.4h3.2c1.2 5.8 3.4 9.8 6.5 12.3a15.46 15.46 0 0 0 9.4 3.5c2.9 0 5.3-.8 6.5-2a7.61 7.61 0 0 0 2.2-5.8 7.71 7.71 0 0 0 -2.2-5.5 25.39 25.39 0 0 0 -4.1-2.5l-8.7-4.5c-4.4-2.3-7.8-4.8-9.7-7.5a16.19 16.19 0 0 1 -2.9-9.5 16.52 16.52 0 0 1 4.6-12c3.1-3.5 7.8-5.3 13.3-5.3a30.9 30.9 0 0 1 8 1.3 17.66 17.66 0 0 0 5.1 1.3 3.08 3.08 0 0 0 1.9-.5 9.34 9.34 0 0 0 1.2-1.8h2.4v17.3h-2.9a21.11 21.11 0 0 0 -5.6-9.8 11.67 11.67 0 0 0 -8.7-3.8c-2.7 0-4.6.8-5.8 2.3a6.59 6.59 0 0 0 -1.9 4.8 6.2 6.2 0 0 0 1.7 4.3c1 1.5 3.2 3 6.3 4.5l6.3 3.3a30.8 30.8 0 0 1 8.7 5.8 15.53 15.53 0 0 1 4.6 11.5 19.16 19.16 0 0 1 -4.6 12.5c-3.1 4-8 5.8-14.3 5.8a14.45 14.45 0 0 1 -4.6-.5 23.56 23.56 0 0 1 -5.8-1.8l-1.9-.5a2.31 2.31 0 0 0 -1.5-.5.74.74 0 0 0 -.7-.3 2.23 2.23 0 0 0 -1.7 1 7.75 7.75 0 0 0 -1.5 2.5h-2.9v-19.9z"/><path d="m0 276.1h70.3v24.5h-3.4c-1-8.8-4.1-14.8-9.4-17.8-2.9-1.8-7.3-2.5-13.1-2.8v63.6c0 4.3.7 7.3 2.2 8.8 1.7 1.5 4.8 2.3 9.4 2.3v3h-41.7v-3c4.6 0 7.8-.8 9.2-2.3s2.2-4.5 2.2-8.8v-63.6c-5.6.3-9.9 1-13.1 2.8-5.6 3.3-8.7 9-9.4 17.8h-3.1v-24.5z"/><g fill="#ec192d"><path d="m305.3 183.1c18.7 16.5 36.1 25.3 63.2 25.8 27.6 0 45.6-9 64.2-25.8l48.7-51.8a16.21 16.21 0 0 1 11.7-5c8.9 0 16.5 7.7 16.5 17a17.36 17.36 0 0 1 -4.8 12l-64.7 64.4c-18 15.3-43.4 22.8-71.5 22.8-28.3 0-53.8-7.5-71.7-22.8l-63.8-64.4a17.36 17.36 0 0 1 -4.8-12c0-9.3 7.5-17 16.5-17a16.51 16.51 0 0 1 11.6 5z"/><path d="m339 134.5a39.2 39.2 0 0 0 29.6 13.3 38.4 38.4 0 0 0 29.3-13.3l42.7-44.3a16.57 16.57 0 0 1 11.9-5.2 16.8 16.8 0 0 1 16.7 17 18.33 18.33 0 0 1 -4.8 12l-37.8 39.3c-18.9 18.8-30 31.3-58.1 30.8-27.1-.3-38-12-56.7-30.6l-38-39.6a18.33 18.33 0 0 1 -4.8-12 16.56 16.56 0 0 1 28.6-11.8z"/><path d="m313.8 72.2a18.5 18.5 0 0 1 -4.8-12.3c0-9.2 7.3-17 16.5-17a16.71 16.71 0 0 1 11.4 4.8l26.2 28.3a7.88 7.88 0 0 0 5.6 2.5 9 9 0 0 0 5.4-2.2l27.1-28.5a16.71 16.71 0 0 1 11.4-4.8c9 0 16.5 7.8 16.5 17a18.5 18.5 0 0 1 -4.8 12.3l-46.5 47.3a11.54 11.54 0 0 1 -8.7 4 11.86 11.86 0 0 1 -9-4z"/><path d="m368.5 0c11.9 0 21.6 10 21.6 22.3s-9.7 22.3-21.6 22.3a22 22 0 0 1 -21.8-22.3 22 22 0 0 1 21.8-22.3z"/></g><path d="m162.3 471.9c3.1-.3 5.3-.5 6.5-1.3 2.2-1.3 3.1-3.8 3.1-7.3v-58.4c0-3.5-1-5.8-2.9-7-1-.8-3.4-1.3-6.8-1.5v-3h39.5v3c-3.4 0-5.8.5-7.3 1.3-2.2 1.3-3.1 3.8-3.1 7.3v25.1h27.9v-25.1c0-3.5-1.2-6-3.1-7.3a33.49 33.49 0 0 0 -7.3-1.3v-3h39.5v3c-3.4.3-5.6.8-6.8 1.5-2.2 1.3-3.2 3.5-3.2 7v58.5c0 3.5 1.2 6 3.4 7.3 1.2.8 3.6 1.3 6.5 1.3v3h-39.5v-3c3.4 0 5.6-.5 7-1.5 2.2-1.3 3.4-3.5 3.4-7v-27.8h-27.9v27.7c0 3.5 1.2 6 3.4 7.3 1.5.8 3.6 1.3 7 1.3v3h-39.5v-3.1z"/><path d="m256.6 426.4a25 25 0 0 1 18.9-8.5 23.43 23.43 0 0 1 18.9 8.8 33.28 33.28 0 0 1 0 41.6 23.43 23.43 0 0 1 -18.9 8.8 24.08 24.08 0 0 1 -18.9-8.5c-5.1-5.8-7.5-12.8-7.5-21 0-8.7 2.4-15.7 7.5-21.2zm10.9 38.8c1.2 5.3 3.9 7.8 8 7.8 3.6 0 6.1-2 7.3-6s1.9-10.5 1.9-19.5-.7-15.5-1.9-19.5-3.6-6-7.3-6c-3.9 0-6.5 2.5-8 7.8-.7 3.5-1.2 9.5-1.2 17.8s.5 14.1 1.2 17.6z"/><path d="m303.4 456.7h3.1c1.2 5.8 3.4 10 6.5 12.3a15.46 15.46 0 0 0 9.4 3.5c2.9 0 5.3-.8 6.6-2a7.39 7.39 0 0 0 2.2-5.5 7.24 7.24 0 0 0 -2.2-5.5 16.08 16.08 0 0 0 -4.1-2.8l-8.7-4.3c-4.4-2.5-7.8-5-9.7-7.8a15.55 15.55 0 0 1 -2.9-9.5 16.52 16.52 0 0 1 4.6-12c3.1-3.5 7.8-5.3 13.3-5.3a30.9 30.9 0 0 1 8 1.3 17 17 0 0 0 5.1 1.3c1 0 1.7 0 1.9-.5a9.34 9.34 0 0 0 1.2-1.8h2.4v17.5h-2.9c-1.2-4.3-2.9-7.5-5.6-10a11.67 11.67 0 0 0 -8.7-3.8c-2.7 0-4.6.8-5.8 2.3a6.74 6.74 0 0 0 -1.9 5 7 7 0 0 0 1.7 4.3q1.5 2 6.3 4.5l6.3 3a30.8 30.8 0 0 1 8.7 5.8 16.21 16.21 0 0 1 4.6 11.8 20.16 20.16 0 0 1 -4.6 12.5c-3.2 3.8-8 5.8-14.3 5.8a35.93 35.93 0 0 1 -4.6-.5c-1.7-.5-3.6-1-5.8-1.8l-1.9-.8a5 5 0 0 0 -1.5-.5h-.7a2.67 2.67 0 0 0 -1.7.8 8.73 8.73 0 0 0 -1.5 2.8h-2.9v-20.1z"/><path d="m343.6 497c2.6-.3 4.4-.8 5.1-1.8 1-1 1.5-2.8 1.5-5.3v-60.5a9.59 9.59 0 0 0 -1.2-5.3 10.32 10.32 0 0 0 -5.1-1.8v-3h22.5v8a19.45 19.45 0 0 1 4.6-6c2.6-2.3 6-3.5 10.4-3.5 6.1 0 11.1 2.5 15.3 7.3 3.9 4.8 6 11.8 6 21.3 0 8.5-2.2 15.8-6.5 21.5s-9.7 8.8-16 8.8a15.42 15.42 0 0 1 -9-3 20.31 20.31 0 0 1 -4.6-4.3v19.3c.3 3.3 1 5.5 2.4 6.5 1.2 1.3 3.4 2 6.6 2v2.8h-32zm40.7-35.6a67.47 67.47 0 0 0 1.2-13.8c0-7-.7-12.5-1.9-16.5s-3.6-6.3-7.3-6.3c-2.7 0-4.8 1.3-6.8 3.5s-2.9 4-2.9 5v29.3c0 1 .7 2.8 2.7 4.5a9.41 9.41 0 0 0 6.6 2.8c4 0 6.9-2.7 8.4-8.5z"/><path d="m403.9 472.2c1.9-.5 3.4-1 4.1-1.8 1.2-1 1.7-3 1.7-5.8v-35.2c0-2.5-.5-4.3-1.2-5-.7-1-2.4-1.5-4.6-2v-3h22.3v46c0 2.5.2 4.3 1 5a11.42 11.42 0 0 0 4.4 1.8v2.8h-27.6v-2.8zm7.5-77.7a9.41 9.41 0 0 1 6.6-2.8 8.57 8.57 0 0 1 6.3 2.8 8.45 8.45 0 0 1 2.6 6.5 8.68 8.68 0 0 1 -2.6 6.8 8.57 8.57 0 0 1 -6.3 2.8 9.78 9.78 0 0 1 -6.6-2.8 9.8 9.8 0 0 1 0-13.3z"/><path d="m431.8 424.6v-3.3c1-1 2.2-2 3.9-3.5a76.67 76.67 0 0 0 5.6-5.8 102.13 102.13 0 0 0 9.7-13h2.9v20.3h11.1v5.3h-11.1v36.6a11.47 11.47 0 0 0 .7 4 3.89 3.89 0 0 0 3.9 2.8 5.08 5.08 0 0 0 3.9-1.8 17.5 17.5 0 0 0 2.9-4.5l2.9 1.5a44.41 44.41 0 0 1 -4.8 8 16.82 16.82 0 0 1 -12.4 5.5 12.4 12.4 0 0 1 -7-1.8c-4.1-2-6.1-5.8-6.1-11v-39.3z"/><path d="m474.9 450.7c5.1-3.3 13.1-6.3 23.7-9.5v-8.8c0-3.8-.7-6.3-2.2-8s-4.1-2.5-7.8-2.5a9.12 9.12 0 0 0 -5.1 1.3c-1.5.8-2.2 1.8-2.2 3 0 .5.3.8.3 1 .2.5.5.8.7 1.3l.7.8a4.57 4.57 0 0 1 1.2 2.3 4.19 4.19 0 0 1 .5 2.5 6.53 6.53 0 0 1 -2.2 5.3 7.43 7.43 0 0 1 -5.1 1.8 8.23 8.23 0 0 1 -5.8-2 7.59 7.59 0 0 1 -2.4-6c0-4.5 2.2-8.3 6.6-10.8 4.1-2.8 9.2-4.3 15.5-4.3a33 33 0 0 1 16.5 4c4.6 2.8 6.8 7.5 6.8 14.8v29.3a5.32 5.32 0 0 0 .5 2 1.7 1.7 0 0 0 1.5 1c.5 0 1 0 1.2-.3a10.06 10.06 0 0 0 1.7-1.5l1.9 2.5c-2.4 2.8-4.8 4.8-7.8 5.8a12.19 12.19 0 0 1 -5.3 1.3c-3.6 0-6-1-7.8-3.3a17 17 0 0 1 -1.9-5.3 23 23 0 0 1 -10.9 7 18.71 18.71 0 0 1 -7.3 1.5 14.35 14.35 0 0 1 -8.9-3.3c-2.9-2-4.1-5.3-4.1-9.8 0-5.6 2.4-9.9 7.5-13.1zm20.3 15.5c1-.5 1.9-1.8 3.2-3.3v-17.8a26 26 0 0 0 -8.3 3.8c-3.9 3-5.8 6.5-5.8 11 0 2.8.5 4.8 1.7 6 1.2 1.5 2.4 2.3 3.9 2.3a8.7 8.7 0 0 0 5.3-2z"/><path d="m520.2 472.2a14 14 0 0 0 4.4-2c.7-1 1.2-2.8 1.2-5.5v-61.4c0-2.5-.5-4.3-1.2-5s-2.2-1.5-4.4-2v-2.8h22v71.1c0 2.8.5 4.5 1.2 5.3 1 1 2.4 1.5 4.6 2.3v2.8h-27.8z"/><path d="m563.6 406.8a12.08 12.08 0 0 1 -11.9-12.3 11.82 11.82 0 0 1 11.9-12 12 12 0 0 1 11.9 12c-.1 6.8-5.4 12.3-11.9 12.3zm0-22.8a10.44 10.44 0 0 0 -10.2 10.5c0 6 4.6 10.8 10.2 10.8a10.65 10.65 0 0 0 0-21.3zm-4.4 6.8c0-1.5 0-2.8-1.7-2.8v-.5h7c2.9 0 5.1 1.3 5.1 3.8a3.39 3.39 0 0 1 -2.9 3.5l1.9 4c.5.8 1 2 1.9 2v.8h-3.9l-3.6-6.5h-.7v3c0 2 0 2.8 1.9 2.8v.8h-7v-.8c1.9 0 1.9-.8 1.9-2.8v-7.3zm3.2 3.5h1c1.7 0 2.7-1.5 2.7-3.3a2.48 2.48 0 0 0 -2.7-2.8h-1z"/></svg>